<?xml version="1.0" encoding="UTF-8" standalone="no"?>
<!DOCTYPE svg PUBLIC "-//W3C//DTD SVG 1.1//EN"
 "http://www.w3.org/Graphics/SVG/1.1/DTD/svg11.dtd">
<!-- Generated by graphviz version 12.1.1 (20240910.0053)
 -->
<!-- Title: INFRA Pages: 1 -->
<svg width="178pt" height="188pt"
 viewBox="0.00 0.00 178.04 188.00" xmlns="http://www.w3.org/2000/svg" xmlns:xlink="http://www.w3.org/1999/xlink">
<g id="graph0" class="graph" transform="scale(1 1) rotate(0) translate(4 184)">
<title>INFRA</title>
<polygon fill="white" stroke="none" points="-4,4 -4,-184 174.04,-184 174.04,4 -4,4"/>
<!-- QWordsWordFiles -->
<g id="node1" class="node">
<title>QWordsWordFiles</title>
<path fill="#fff5cd" stroke="black" stroke-width="2" d="M151.37,-65.45C151.37,-69.07 121.63,-72 85.02,-72 48.41,-72 18.67,-69.07 18.67,-65.45 18.67,-65.45 18.67,-6.55 18.67,-6.55 18.67,-2.93 48.41,0 85.02,0 121.63,0 151.37,-2.93 151.37,-6.55 151.37,-6.55 151.37,-65.45 151.37,-65.45"/>
<path fill="none" stroke="black" stroke-width="2" d="M151.37,-65.45C151.37,-61.84 121.63,-58.91 85.02,-58.91 48.41,-58.91 18.67,-61.84 18.67,-65.45"/>
<text text-anchor="middle" x="85.02" y="-40.2" font-family="Arial" font-size="14.00">QWordsWordFiles</text>
<text text-anchor="middle" x="85.02" y="-23.4" font-family="Arial" font-size="14.00">(AWS::S3::Bucket)</text>
</g>
<!-- QWordsWordFilesPolicy -->
<g id="node2" class="node">
<title>QWordsWordFilesPolicy</title>
<path fill="#fff5cd" stroke="black" stroke-width="2" d="M170.04,-173.45C170.04,-177.07 131.93,-180 85.02,-180 38.11,-180 0,-177.07 0,-173.45 0,-173.45 0,-114.55 0,-114.55 0,-110.93 38.11,-108 85.02,-108 131.93,-108 170.04,-110.93 170.04,-114.55 170.04,-114.55 170.04,-173.45 170.04,-173.45"/>
<path fill="none" stroke="black" stroke-width="2" d="M170.04,-173.45C170.04,-169.84 131.93,-166.91 85.02,-166.91 38.11,-166.91 0,-169.84 0,-173.45"/>
<text text-anchor="middle" x="85.02" y="-148.2" font-family="Arial" font-size="14.00">QWordsWordFilesPolicy</text>
<text text-anchor="middle" x="85.02" y="-131.4" font-family="Arial" font-size="14.00">(AWS::S3::BucketPolicy)</text>
</g>
<!-- QWordsWordFilesPolicy&#45;&gt;QWordsWordFiles -->
<g id="edge1" class="edge">
<title>QWordsWordFilesPolicy&#45;&gt;QWordsWordFiles</title>
<path fill="none" stroke="black" d="M85.02,-107.7C85.02,-99.93 85.02,-91.57 85.02,-83.43"/>
<polygon fill="black" stroke="black" points="88.52,-83.66 85.02,-73.66 81.52,-83.66 88.52,-83.66"/>
</g>
</g>
</svg>
